<svg width="414" height="614" viewBox="0 0 414 614" fill="none" xmlns="http://www.w3.org/2000/svg">
<path d="M59.7588 560.463C-30.448 508.915 250.682 340.65 233.557 230.3C217.162 124.66 86.8194 56.2581 152.399 -47.5304C254.272 -208.757 663.492 24.6844 714.518 177.13C771.824 348.34 210.419 646.558 59.7588 560.463Z" fill="white" fill-opacity="0.1"/>
<path d="M674.88 362.614C568.917 380.311 520.057 295.701 430.409 236.523C344.587 179.872 247.32 170.417 226.682 69.7045C194.623 -86.7446 457.697 -157.634 602.878 -90.9771C765.93 -16.1152 851.856 333.056 674.88 362.614Z" fill="white" fill-opacity="0.3"/>
<path d="M741.88 337.614C635.917 355.311 587.057 270.7 497.409 211.523C411.587 154.872 314.32 145.417 293.682 44.7045C261.623 -111.745 524.697 -182.634 669.878 -115.977C832.93 -41.1152 918.856 308.056 741.88 337.614Z" stroke="white" stroke-opacity="0.3"/>
</svg>
